<?xml version="1.0" standalone="no"?>
<!DOCTYPE svg PUBLIC "-//W3C//DTD SVG 20010904//EN"
 "http://www.w3.org/TR/2001/REC-SVG-20010904/DTD/svg10.dtd">
<svg version="1.0" xmlns="http://www.w3.org/2000/svg"
 width="700.000000pt" height="700.000000pt" viewBox="0 0 700.000000 700.000000"
 preserveAspectRatio="xMidYMid meet">
<metadata>
Created by potrace 1.11, written by Peter Selinger 2001-2013
</metadata>
<g transform="translate(0.000000,700.000000) scale(0.100000,-0.100000)"
fill="#000000" stroke="none">
<path d="M3246 6883 c-2 -2 -34 -6 -72 -9 -38 -3 -80 -7 -94 -9 -14 -3 -49 -8
-79 -11 -30 -3 -63 -8 -73 -10 -10 -2 -26 -6 -37 -8 -10 -2 -36 -7 -57 -10
-22 -4 -66 -13 -99 -21 -33 -9 -71 -18 -85 -21 -39 -8 -55 -12 -55 -14 0 -1
-8 -4 -50 -14 -11 -2 -32 -9 -47 -15 -16 -6 -28 -8 -28 -5 0 2 -10 -1 -22 -8
-13 -6 -30 -13 -39 -15 -9 -1 -52 -16 -95 -33 -44 -17 -83 -33 -89 -34 -5 -1
-28 -10 -50 -20 -49 -22 -88 -37 -95 -38 -3 0 -17 -9 -32 -19 -14 -10 -31 -19
-37 -19 -6 0 -25 -9 -43 -19 -17 -11 -35 -18 -40 -15 -4 3 -11 -1 -14 -10 -3
-8 -19 -18 -35 -21 -16 -4 -29 -10 -29 -15 0 -5 -16 -14 -35 -20 -19 -6 -35
-15 -35 -20 0 -4 -8 -10 -17 -13 -17 -5 -64 -32 -88 -50 -5 -4 -32 -22 -60
-40 -27 -17 -56 -37 -63 -44 -7 -7 -20 -13 -28 -13 -8 0 -14 -4 -14 -9 0 -4
-19 -21 -42 -37 -24 -16 -48 -33 -55 -39 -7 -5 -27 -21 -44 -35 -18 -14 -42
-34 -55 -45 -12 -12 -37 -32 -55 -45 -38 -29 -276 -264 -334 -331 -51 -59 -94
-110 -146 -179 -24 -30 -46 -56 -51 -58 -4 -2 -8 -10 -8 -18 0 -8 -4 -14 -10
-14 -5 0 -10 -5 -10 -10 0 -6 -11 -23 -25 -38 -14 -15 -25 -30 -25 -33 0 -3
-23 -41 -51 -84 -29 -43 -65 -101 -80 -129 -41 -74 -172 -343 -194 -396 -10
-25 -23 -58 -30 -75 -11 -25 -25 -66 -30 -85 -1 -3 -4 -12 -8 -20 -23 -58 -64
-194 -82 -270 -2 -8 -4 -15 -5 -15 -2 0 -10 -43 -12 -67 -1 -10 -5 -18 -9 -18
-3 0 -6 -8 -6 -17 1 -32 -15 -103 -24 -109 -5 -3 -7 -9 -4 -15 3 -5 1 -35 -4
-66 -6 -32 -13 -77 -16 -100 -3 -24 -8 -62 -11 -85 -22 -170 -22 -550 1 -743
2 -22 7 -62 9 -88 3 -26 7 -51 10 -55 2 -4 7 -32 11 -62 8 -66 12 -87 20 -120
3 -14 8 -38 11 -55 3 -16 8 -37 11 -45 7 -18 9 -27 17 -64 8 -44 55 -199 67
-219 5 -10 7 -22 4 -27 -3 -5 -1 -11 5 -15 5 -3 10 -13 10 -22 0 -8 6 -29 14
-46 34 -74 64 -156 58 -161 -3 -3 0 -6 6 -6 7 0 12 -4 12 -10 0 -5 14 -39 31
-75 16 -35 30 -67 29 -71 -1 -4 2 -10 7 -13 4 -3 19 -30 32 -59 14 -28 28 -52
33 -52 4 0 7 -3 6 -7 -3 -10 63 -127 74 -131 4 -2 8 -8 8 -14 0 -13 140 -222
151 -226 5 -2 9 -8 9 -14 0 -5 6 -15 12 -22 7 -8 20 -24 28 -36 8 -12 22 -30
30 -40 60 -73 89 -107 117 -136 17 -19 29 -34 26 -34 -6 0 240 -243 289 -285
19 -16 54 -46 78 -65 24 -19 54 -45 67 -57 12 -12 23 -19 23 -15 0 4 11 -4 25
-18 37 -38 52 -49 59 -43 3 3 8 -2 12 -11 3 -9 10 -16 15 -16 6 0 33 -17 62
-38 62 -44 81 -57 125 -79 17 -9 32 -21 32 -25 0 -5 5 -6 10 -3 6 3 10 1 10
-6 0 -7 3 -10 6 -7 3 4 14 -2 25 -13 11 -11 24 -17 29 -14 6 4 10 1 10 -4 0
-6 4 -11 9 -11 5 0 38 -16 73 -36 34 -20 69 -37 76 -38 7 -1 18 -8 24 -14 7
-7 16 -12 21 -12 5 0 32 -12 61 -26 28 -14 52 -25 54 -25 1 1 16 -6 32 -14 16
-8 32 -15 35 -15 3 0 21 -7 41 -15 20 -8 38 -15 40 -15 1 0 13 -4 26 -9 13 -5
25 -9 28 -9 4 0 34 -11 105 -38 11 -4 33 -9 49 -11 l28 -4 -33 33 c-19 19 -40
46 -48 61 -8 15 -18 27 -23 27 -4 0 -8 6 -8 14 0 8 -3 16 -7 18 -11 4 -69 120
-66 130 2 4 -2 8 -8 8 -5 0 -8 4 -5 9 4 5 2 11 -4 13 -5 1 -11 12 -13 23 -2
11 -9 33 -15 48 -7 16 -12 34 -12 41 0 7 -3 16 -7 20 -7 7 -12 27 -16 63 -1
13 -4 23 -7 23 -6 0 -8 13 -12 67 -2 18 -5 33 -8 33 -3 0 -5 23 -5 51 0 28 -3
56 -6 61 -4 6 -3 24 1 39 5 17 5 31 -1 35 -5 3 -6 10 -3 16 4 5 8 30 10 55 4
56 34 163 45 163 4 0 11 9 14 21 4 11 18 33 31 47 51 57 74 88 80 105 3 9 10
17 15 17 6 0 7 5 4 10 -3 6 -2 10 3 10 9 0 34 41 66 107 6 13 15 23 19 23 5 0
5 5 2 10 -3 6 -1 10 4 10 6 0 10 3 9 7 -1 5 13 40 31 78 18 39 36 79 40 90 24
58 28 71 27 76 0 3 5 13 13 22 7 10 11 17 8 17 -4 0 3 21 13 46 11 25 22 55
24 67 3 12 7 31 10 42 20 75 37 144 40 170 3 17 8 46 11 65 4 19 8 91 10 160
4 137 9 169 30 210 8 15 11 30 8 34 -4 3 -1 6 5 6 6 0 14 9 17 21 6 19 110
153 157 203 45 47 70 125 57 176 -4 14 -8 20 -36 54 -6 7 -9 16 -6 20 3 3 -2
8 -11 12 -9 3 -16 12 -16 19 0 7 -7 18 -15 25 -54 45 -121 185 -129 270 -3 25
-6 47 -7 50 -5 15 -3 36 4 47 4 6 3 14 -3 18 -6 3 -7 12 -3 18 4 7 8 17 9 22
1 6 5 21 8 35 3 14 7 36 10 49 19 87 23 239 10 391 -9 101 -10 299 -1 390 3
36 7 65 7 65 2 0 8 33 15 80 3 22 10 58 16 80 5 22 11 45 12 50 4 17 21 11 24
-8 3 -16 38 -73 54 -87 3 -3 12 -15 20 -26 61 -90 354 -386 385 -390 13 -1 26
1 28 5 3 4 24 8 48 10 24 1 55 3 71 5 15 2 27 0 27 -3 0 -3 12 -7 28 -7 15 -1
42 -5 60 -9 33 -6 37 -3 165 128 73 74 150 155 172 181 22 26 52 61 67 79 15
18 35 46 43 64 9 18 20 35 25 38 6 3 10 18 11 33 1 37 38 -76 43 -134 3 -24 7
-48 11 -53 25 -41 25 -487 -1 -591 -8 -34 -12 -173 -5 -185 3 -5 7 -23 9 -40
8 -80 10 -90 12 -90 1 0 3 -9 6 -20 16 -77 23 -175 12 -175 -5 0 -6 -11 -4
-24 2 -13 2 -27 -2 -30 -3 -4 -7 -17 -9 -29 -2 -12 -12 -39 -23 -59 -11 -21
-17 -38 -15 -38 3 0 -23 -38 -57 -84 -84 -112 -91 -123 -89 -131 2 -4 -2 -11
-8 -14 -10 -6 -13 -39 -10 -86 2 -20 39 -79 75 -121 11 -12 35 -41 54 -64 19
-24 40 -48 45 -54 6 -6 21 -31 34 -56 14 -25 29 -48 35 -52 6 -4 7 -8 3 -8 -4
0 -3 -8 2 -18 17 -32 23 -73 27 -192 2 -63 6 -133 9 -155 3 -22 7 -53 9 -70 2
-16 5 -30 6 -30 2 0 3 -11 4 -25 1 -14 4 -29 8 -35 3 -5 9 -26 13 -45 11 -54
84 -272 96 -287 7 -7 8 -13 5 -13 -4 0 -1 -10 6 -22 7 -13 11 -26 10 -30 -1
-5 3 -8 8 -8 5 0 9 -3 8 -7 -2 -9 71 -166 81 -173 3 -3 17 -26 30 -52 13 -27
28 -48 33 -48 4 0 8 -5 8 -10 0 -15 55 -92 97 -135 19 -20 73 -117 73 -130 0
-3 0 -6 1 -7 5 -16 10 -54 15 -108 3 -36 8 -66 9 -68 2 -2 -1 -17 -5 -33 -5
-17 -5 -31 1 -34 5 -4 5 -14 -1 -26 -6 -11 -9 -23 -6 -27 4 -8 -6 -76 -28
-177 -6 -29 -38 -133 -46 -150 -5 -11 -19 -45 -31 -75 -13 -30 -31 -66 -41
-79 -10 -13 -18 -30 -18 -37 0 -8 -5 -14 -11 -14 -5 0 -7 -4 -4 -10 3 -5 3
-10 -2 -10 -4 0 -26 -25 -47 -55 -22 -30 -43 -55 -47 -55 -4 0 -9 -6 -12 -14
-6 -16 19 -10 101 21 23 8 23 8 56 18 16 4 41 14 55 21 13 7 28 11 33 8 4 -3
8 0 8 6 0 6 4 9 9 5 5 -3 12 -1 15 4 3 5 17 12 31 15 14 4 67 26 118 50 52 24
103 47 115 50 12 4 22 12 22 17 0 5 9 9 19 9 11 0 26 6 33 13 7 6 29 20 48 29
56 27 115 62 118 71 2 4 8 7 13 7 11 0 143 85 163 106 9 8 16 13 16 10 0 -5
51 31 110 77 8 7 39 30 68 52 28 21 52 43 52 49 0 5 2 7 5 4 6 -5 76 55 159
137 28 27 54 48 59 47 4 -1 7 1 7 6 0 4 42 52 94 107 52 54 92 104 89 109 -4
6 -3 8 2 4 8 -8 35 15 35 30 0 6 4 12 8 14 8 3 113 135 142 178 8 12 21 28 28
36 6 7 12 17 12 23 0 6 5 11 10 11 6 0 10 6 10 13 0 7 9 23 20 35 11 12 20 24
20 27 0 4 13 26 30 49 16 24 26 46 23 50 -4 3 -1 6 6 6 7 0 17 14 22 30 6 17
15 30 20 30 5 0 9 4 9 10 0 5 21 47 46 92 25 46 45 84 45 85 -1 2 10 27 23 55
59 129 74 167 68 172 -3 3 0 6 6 6 7 0 12 9 12 20 0 11 5 20 11 20 5 0 8 3 6
8 -3 4 0 18 6 32 5 14 11 30 12 35 0 6 7 24 14 40 7 17 13 38 14 48 1 9 5 17
9 17 4 0 7 3 6 8 -1 8 10 58 19 82 4 8 7 18 8 23 2 4 3 8 5 10 2 2 6 25 13 65
2 9 6 22 9 27 3 6 11 35 17 65 6 30 14 66 16 80 3 14 8 39 11 55 3 17 7 39 9
50 2 11 6 36 9 55 2 19 7 51 10 70 6 37 13 103 23 215 10 118 4 580 -7 580 -1
0 -4 20 -5 45 -4 45 -13 115 -15 115 -1 0 -3 20 -6 45 -4 44 -11 85 -14 85 -1
0 -3 9 -5 20 -2 11 -7 36 -11 55 -4 19 -9 43 -10 53 -2 9 -5 26 -7 37 -2 11
-6 23 -10 26 -4 4 -7 18 -7 30 0 13 -4 33 -9 46 -5 13 -17 52 -27 88 -10 36
-21 70 -26 76 -5 7 -8 16 -7 20 1 5 -1 18 -5 29 -4 11 -13 34 -19 50 -7 17
-12 33 -12 37 0 3 -3 10 -7 14 -5 4 -8 16 -8 26 0 10 -4 18 -8 18 -5 0 -9 6
-9 14 0 7 -10 36 -23 62 -12 27 -23 54 -24 60 -1 7 -7 18 -13 25 -6 8 -12 17
-13 21 -4 27 -23 68 -31 68 -5 0 -8 3 -7 8 2 7 -33 83 -42 92 -6 6 -27 51 -28
63 -1 4 -7 13 -13 20 -10 12 -30 44 -85 140 -15 26 -31 47 -36 47 -4 0 -8 7
-8 15 0 8 -9 23 -20 32 -11 10 -20 21 -20 26 0 7 -23 43 -57 86 -68 90 -180
226 -208 255 -19 20 -35 38 -35 41 0 3 -141 142 -256 253 -13 12 -28 22 -34
22 -6 0 -8 5 -5 10 3 6 1 10 -6 10 -6 0 -20 10 -30 22 -11 11 -19 18 -19 15 0
-3 -12 5 -27 19 -74 68 -399 293 -412 285 -2 -2 -7 1 -10 6 -17 23 -415 221
-433 215 -5 -1 -8 3 -8 8 0 6 -10 10 -23 10 -13 0 -27 4 -32 9 -6 5 -48 21
-95 36 -47 16 -91 33 -97 38 -7 5 -13 7 -13 4 0 -3 -21 2 -47 10 -106 33 -316
83 -373 88 -14 2 -25 4 -25 5 0 4 -51 11 -170 25 -27 3 -70 8 -95 11 -52 7
-568 13 -574 7z"/>
</g>
</svg>
