<svg width="28" height="20" viewBox="0 0 28 20" fill="none" xmlns="http://www.w3.org/2000/svg">
<path d="M25.8429 10.8536C23.3951 6.16935 18.5489 3 13 3C7.45107 3 2.60359 6.17156 0.157059 10.8541C0.0537999 11.0544 0 11.2757 0 11.5002C0 11.7247 0.0537999 11.946 0.157059 12.1464C2.60495 16.8307 7.45107 20 13 20C18.5489 20 23.3964 16.8284 25.8429 12.1459C25.9462 11.9456 26 11.7243 26 11.4998C26 11.2753 25.9462 11.054 25.8429 10.8536ZM13 17.875C11.7144 17.875 10.4577 17.5011 9.38879 16.8006C8.31986 16.1001 7.48674 15.1045 6.99477 13.9396C6.5028 12.7747 6.37408 11.4929 6.62488 10.2563C6.87569 9.01967 7.49475 7.88375 8.4038 6.99219C9.31284 6.10063 10.471 5.49347 11.7319 5.24749C12.9928 5.00151 14.2997 5.12776 15.4874 5.61027C16.6752 6.09278 17.6903 6.90988 18.4046 7.95824C19.1188 9.0066 19.5 10.2391 19.5 11.5C19.5004 12.3373 19.3326 13.1665 19.0061 13.9401C18.6796 14.7137 18.2008 15.4167 17.5971 16.0087C16.9935 16.6008 16.2767 17.0703 15.4879 17.3906C14.6991 17.7108 13.8537 17.8754 13 17.875ZM13 7.25C12.6132 7.2553 12.2289 7.31174 11.8575 7.41779C12.1637 7.82582 12.3106 8.32794 12.2716 8.8331C12.2327 9.33826 12.0104 9.81299 11.6452 10.1712C11.2799 10.5294 10.7959 10.7474 10.2808 10.7856C9.76574 10.8238 9.25377 10.6798 8.83773 10.3795C8.60083 11.2355 8.64359 12.1428 8.96001 12.9738C9.27642 13.8047 9.85055 14.5174 10.6016 15.0115C11.3526 15.5057 12.2428 15.7564 13.1467 15.7284C14.0506 15.7004 14.9228 15.3951 15.6406 14.8554C16.3583 14.3158 16.8854 13.569 17.1477 12.7201C17.41 11.8712 17.3943 10.9631 17.1028 10.1234C16.8113 9.28379 16.2586 8.55494 15.5227 8.03949C14.7867 7.52403 13.9044 7.24791 13 7.25Z" fill="#393D46"/>
<line x1="0.820874" y1="1.74455" x2="26.8209" y2="18.7445" stroke="#393D46" stroke-width="3"/>
</svg>
