<svg width="26" height="17" viewBox="0 0 26 17" fill="none" xmlns="http://www.w3.org/2000/svg">
<path d="M25.8429 7.85365C23.3951 3.16935 18.5489 0 13 0C7.45107 0 2.60359 3.17156 0.157059 7.85409C0.0537999 8.05442 0 8.27575 0 8.50022C0 8.72469 0.0537999 8.94602 0.157059 9.14635C2.60495 13.8307 7.45107 17 13 17C18.5489 17 23.3964 13.8284 25.8429 9.14591C25.9462 8.94558 26 8.72425 26 8.49978C26 8.2753 25.9462 8.05397 25.8429 7.85365V7.85365ZM13 14.875C11.7144 14.875 10.4577 14.5011 9.38879 13.8006C8.31986 13.1001 7.48674 12.1045 6.99477 10.9396C6.5028 9.77473 6.37408 8.49293 6.62488 7.2563C6.87569 6.01967 7.49475 4.88375 8.4038 3.99219C9.31284 3.10063 10.471 2.49347 11.7319 2.24749C12.9928 2.00151 14.2997 2.12776 15.4874 2.61027C16.6752 3.09278 17.6903 3.90988 18.4046 4.95824C19.1188 6.0066 19.5 7.23914 19.5 8.5C19.5004 9.33729 19.3326 10.1665 19.0061 10.9401C18.6796 11.7137 18.2008 12.4167 17.5971 13.0087C16.9935 13.6008 16.2767 14.0703 15.4879 14.3906C14.6991 14.7108 13.8537 14.8754 13 14.875V14.875ZM13 4.25C12.6132 4.2553 12.2289 4.31174 11.8575 4.41779C12.1637 4.82582 12.3106 5.32794 12.2716 5.8331C12.2327 6.33826 12.0104 6.81299 11.6452 7.17121C11.2799 7.52943 10.7959 7.74741 10.2808 7.78563C9.76574 7.82384 9.25377 7.67976 8.83773 7.37951C8.60083 8.23552 8.6436 9.14285 8.96001 9.97378C9.27642 10.8047 9.85055 11.5174 10.6016 12.0115C11.3526 12.5057 12.2428 12.7564 13.1467 12.7284C14.0506 12.7004 14.9228 12.3951 15.6406 11.8554C16.3583 11.3158 16.8854 10.569 17.1477 9.7201C17.41 8.87124 17.3943 7.96307 17.1028 7.12343C16.8113 6.28379 16.2586 5.55494 15.5227 5.03949C14.7867 4.52403 13.9044 4.24791 13 4.25V4.25Z" fill="#393D46"/>
</svg>
