<svg width="512" height="512" viewBox="0 0 512 512" fill="none" xmlns="http://www.w3.org/2000/svg">
<path d="M64 496C64 504.8 56.75 512 48 512H16C7.25 512 0 504.8 0 496V32C0 14.25 14.25 0 32 0C49.75 0 64 14.25 64 32V496ZM476.3 0C469.935 0 463.29 1.35 456.96 4.233C411.27 25.093 377.4 32.173 349.16 32.173C289.2 32.173 254.35 0.313 185.26 0.303C160.9 0.3055 131.6 4.867 96 15.75V366.25C128 356.266 155.87 352.15 180.85 352.15C254.48 352.15 305.75 383.93 379.45 383.93C411.36 383.93 447.47 377.959 490.55 360.84C504.1 355.9 512 344.4 512 332.1V30.73C512 11.1 495.3 0 476.3 0Z" fill="#FFC000"/>
</svg>
